<svg xmlns="http://www.w3.org/2000/svg" width="24" height="24" viewBox="0 0 24 24" fill="none">
<g clip-path="url(#clip0_14_1630)">
<path d="M19 12C18.7348 12 18.4804 12.1054 18.2929 12.2929C18.1054 12.4804 18 12.7348 18 13V21C18 21.551 17.552 22 17 22H3C2.448 22 2 21.551 2 21V7C2 6.449 2.448 6 3 6H11C11.2652 6 11.5196 5.89464 11.7071 5.70711C11.8946 5.51957 12 5.26522 12 5C12 4.73478 11.8946 4.48043 11.7071 4.29289C11.5196 4.10536 11.2652 4 11 4H3C1.346 4 0 5.346 0 7V21C0 22.654 1.346 24 3 24H17C18.654 24 20 22.654 20 21V13C20 12.7348 19.8946 12.4804 19.7071 12.2929C19.5196 12.1054 19.2652 12 19 12Z" fill="#1273EB"/>
<path d="M9.37585 11.089C9.30633 11.1588 9.25871 11.2475 9.23885 11.344L8.53185 14.88C8.516 14.9607 8.52027 15.0441 8.54427 15.1228C8.56828 15.2014 8.61129 15.273 8.6695 15.3311C8.72772 15.3892 8.79935 15.4321 8.87806 15.456C8.95678 15.4799 9.04017 15.484 9.12085 15.468L12.6559 14.761C12.7529 14.7418 12.8421 14.6941 12.9119 14.624L20.8239 6.71199L17.2889 3.17699L9.37585 11.089ZM23.2679 0.731994C22.7988 0.263805 22.1631 0.000854492 21.5004 0.000854492C20.8376 0.000854492 20.2019 0.263805 19.7329 0.731994L18.3489 2.11599L21.8839 5.65099L23.2679 4.26699C23.7399 3.79599 23.9999 3.16799 23.9999 2.49999C23.9999 1.83199 23.7399 1.20399 23.2679 0.731994Z" fill="#1273EB"/>
</g>
<defs>
<clipPath id="clip0_14_1630">
<rect width="24" height="24" fill="white"/>
</clipPath>
</defs>
</svg>
