<svg width="120" height="21" viewBox="0 0 120 21" fill="none" xmlns="http://www.w3.org/2000/svg">
<g id="minimir-logo-single-new 1" clip-path="url(#clip0_15_3488)">
<path id="Vector" d="M105.959 8.76587H99.4497V20.7029H105.959V8.76587Z" fill="#252223"/>
<path id="Vector_2" d="M85.8944 4.35V7.40705C85.1656 5.22344 82.9312 3.67065 79.8704 3.67065C78.6072 3.67065 77.1497 3.91328 76.2266 4.25295L75.7894 8.86275L75.3036 4.10737H69.668V20.6543H76.0809V11.0949C76.0809 10.0759 76.8096 9.20243 77.8784 9.20243C78.8987 9.20243 79.7732 10.0759 79.7732 11.0949V20.6543H86.1864V10.9008C86.1864 9.93035 86.9632 9.15395 87.9352 9.15395C88.9072 9.15395 89.684 9.93035 89.684 10.9008V20.6543H96.0968V9.20243C96.0968 6.14541 93.5224 3.67065 89.7328 3.67065C88.4696 3.67065 86.8664 3.9618 85.8944 4.35Z" fill="#252223"/>
<path id="Vector_3" d="M45.9593 8.86275L45.4735 4.10737H39.6436V20.6543H46.1536V11.0949C46.1536 10.0759 47.0282 9.20243 48.0484 9.20243C49.0687 9.20243 49.9432 10.0759 49.9432 11.0949V20.6543H56.4532V9.20243C56.4532 6.14541 53.8784 3.67065 50.0889 3.67065C48.8257 3.67065 47.3683 3.91328 46.4452 4.25295L45.9593 8.86275Z" fill="#252223"/>
<path id="Vector_4" d="M16.2753 4.35V7.40705C15.5466 5.22344 13.3118 3.67065 10.251 3.67065C8.98784 3.67065 7.53037 3.91328 6.60729 4.25295L6.17004 8.86275L5.68421 4.10737H0V20.6543H6.41295V11.0949C6.41295 10.0759 7.1417 9.20243 8.21056 9.20243C9.2308 9.20243 10.1053 10.0759 10.1053 11.0949V20.6543H16.5182V10.9008C16.5182 9.93035 17.2955 9.15395 18.2672 9.15395C19.2389 9.15395 20.0162 9.93035 20.0162 10.9008V20.6543H26.4291V9.20243C26.4291 6.14541 23.8542 3.67065 20.0648 3.67065C18.8502 3.67065 17.1984 3.9618 16.2753 4.35Z" fill="#252223"/>
<path id="Vector_5" d="M109.263 4.10749V20.6544H115.676V12.6478C115.725 10.076 117.231 9.39664 119.951 9.39664V4.25307C119.514 4.10749 119.029 3.96191 118.397 3.96191C117.279 3.96191 116.502 4.30159 115.676 4.78683V9.2996L114.85 4.15602H109.263V4.10749Z" fill="#252223"/>
<path id="Vector_6" d="M59.8057 8.03796V20.6544H66.3158V8.03796C65.4413 8.7658 64.2753 9.25108 63.0608 9.25108C61.8461 9.20252 60.6801 8.7658 59.8057 8.03796Z" fill="#252223"/>
<path id="Vector_7" d="M29.7812 9.44515V20.6543H36.2913V5.70874L29.7812 9.44515Z" fill="#252223"/>
<path id="Vector_8" d="M59.3682 4.15605C59.3682 6.19408 61.0686 7.84391 63.0605 7.84391C65.101 7.84391 66.7528 6.14555 66.7528 4.15605C66.7528 2.11802 65.0524 0.468178 63.0605 0.468178C61.02 0.419653 59.3682 2.11802 59.3682 4.15605Z" fill="#C9252A"/>
<path id="Vector_9" d="M105.959 0.904907H99.4497V7.4072H105.959V0.904907Z" fill="#C9252A"/>
<path id="Vector_10" fill-rule="evenodd" clip-rule="evenodd" d="M29.7812 0.371094L33.0363 2.26355L36.2913 4.10749L33.0363 5.99994L29.7812 7.89241V4.10749V0.371094Z" fill="#C9252A"/>
</g>
<defs>
<clipPath id="clip0_15_3488">
<rect width="120" height="20.8" fill="white"/>
</clipPath>
</defs>
</svg>
